<?xml version="1.0" standalone="no"?>
<!DOCTYPE svg PUBLIC "-//W3C//DTD SVG 20010904//EN"
 "http://www.w3.org/TR/2001/REC-SVG-20010904/DTD/svg10.dtd">
<svg version="1.0" xmlns="http://www.w3.org/2000/svg"
 width="200.000000pt" height="200.000000pt" viewBox="0 0 200.000000 200.000000"
 preserveAspectRatio="xMidYMid meet">

<g transform="translate(0.000000,200.000000) scale(0.100000,-0.100000)"
fill="#000000" stroke="none">
<path d="M716 1477 c-17 -12 -18 -27 -11 -241 7 -206 10 -231 27 -248 13 -13
28 -17 51 -14 18 3 129 13 247 21 242 18 256 20 262 37 9 24 -7 347 -17 357
-6 6 -118 29 -250 51 -132 22 -251 43 -265 46 -14 2 -34 -1 -44 -9z m318 -61
c125 -19 229 -36 231 -38 1 -2 6 -81 10 -175 l7 -173 -29 0 c-15 0 -131 -5
-256 -11 -125 -7 -230 -9 -233 -7 -6 7 -23 431 -17 441 3 4 17 6 31 3 15 -3
130 -21 256 -40z"/>
<path d="M819 1378 c-14 -27 -4 -265 13 -285 16 -19 387 -18 413 1 17 12 18
23 12 122 -4 66 -12 113 -20 121 -10 11 -334 63 -389 63 -10 0 -23 -10 -29
-22z"/>
<path d="M1070 979 c-74 -9 -146 -18 -160 -19 -38 -2 56 -30 103 -30 59 0 207
40 207 56 0 8 -3 13 -7 13 -5 -1 -69 -10 -143 -20z"/>
<path d="M756 745 c-9 -30 -19 -61 -22 -70 -4 -10 0 -15 10 -15 9 0 16 7 16
15 0 10 10 15 30 15 18 0 33 -6 36 -15 4 -8 12 -15 19 -15 10 0 8 17 -8 70
-17 60 -23 70 -43 70 -19 0 -25 -9 -38 -55z m54 -12 c0 -16 -6 -23 -20 -23
-23 0 -23 -2 -9 39 9 24 14 29 20 19 5 -7 9 -23 9 -35z"/>
<path d="M880 725 l0 -75 36 0 c60 0 74 13 74 73 0 29 -5 58 -12 65 -7 7 -31
12 -55 12 l-43 0 0 -75z m82 30 c17 -38 0 -80 -32 -80 -23 0 -25 4 -28 53 -3
50 -2 52 23 52 18 0 29 -8 37 -25z"/>
<path d="M1024 786 c-11 -28 1 -51 34 -65 42 -19 39 -45 -6 -49 -41 -4 -32
-22 12 -22 65 0 75 53 16 82 -44 22 -45 42 -2 46 46 5 40 22 -8 22 -26 0 -43
-5 -46 -14z"/>
<path d="M1156 784 c-23 -22 -21 -96 2 -117 23 -21 66 -22 86 -1 18 18 21 85
6 115 -13 24 -72 26 -94 3z m72 -53 c4 -50 -7 -66 -37 -56 -17 5 -21 14 -21
49 0 49 6 58 35 54 16 -2 21 -12 23 -47z"/>
</g>
</svg>
